<?xml version="1.0" standalone="no"?><!DOCTYPE svg PUBLIC "-//W3C//DTD SVG 1.1//EN" "http://www.w3.org/Graphics/SVG/1.1/DTD/svg11.dtd"><svg t="1500638682375" class="icon" style="" viewBox="0 0 1024 1024" version="1.1" xmlns="http://www.w3.org/2000/svg" p-id="1242" xmlns:xlink="http://www.w3.org/1999/xlink" width="200" height="200"><defs><style type="text/css"></style></defs><path d="M903.168 574.324364l0 219.461818c0 40.448-32.861091 73.216-73.355636 73.216L194.187636 867.002182c-40.494545 0-73.355636-32.768-73.355636-73.216l0-219.461818-48.872727 0 0 243.851636c0 53.899636 43.799273 97.605818 97.792 97.605818l684.497455 0c53.992727 0 97.792-43.706182 97.792-97.605818l0-243.851636L903.168 574.324364zM494.731636 688.779636c9.541818 9.541818 25.041455 9.541818 34.583273 0l172.869818-172.544c9.541818-9.541818 9.541818-24.994909 0-34.490182-9.541818-9.541818-25.041455-9.541818-34.583273 0l-131.118545 130.885818L536.482909 132.701091c0-13.498182-10.938182-24.436364-24.436364-24.436364s-24.436364 10.938182-24.436364 24.436364l0 479.930182L356.398545 481.745455c-9.541818-9.541818-25.041455-9.541818-34.583273 0-9.541818 9.541818-9.541818 24.994909 0 34.490182L494.731636 688.779636z" p-id="1243" fill="#515151"></path></svg>