<?xml version="1.0" standalone="no"?><!DOCTYPE svg PUBLIC "-//W3C//DTD SVG 1.1//EN" "http://www.w3.org/Graphics/SVG/1.1/DTD/svg11.dtd"><svg t="1500638430302" class="icon" style="" viewBox="0 0 1024 1024" version="1.1" xmlns="http://www.w3.org/2000/svg" p-id="44673" xmlns:xlink="http://www.w3.org/1999/xlink" width="200" height="200"><defs><style type="text/css"></style></defs><path d="M751.394011 339.285333l141.214476 213.284571C922.35325 597.479619 902.775345 633.904762 848.917821 633.904762L166.251154 633.904762l0 365.714286c0 13.458286-10.922667 24.380952-24.380952 24.380952s-24.380952-10.922667-24.380952-24.380952L117.48925 633.904762l0 0L117.48925 48.761905l0 0L117.48925 24.380952c0-13.458286 10.922667-24.380952 24.380952-24.380952s24.380952 10.922667 24.380952 24.380952l0 24.380952 682.666667 0c53.857524 0 73.191619 36.254476 43.178667 80.969143L751.394011 339.285333zM166.251154 97.52381l0 487.619048 682.666667 0-135.704381-202.922667c-14.677333-22.576762-14.677333-59.196952 0-81.773714L848.917821 97.52381 166.251154 97.52381z" p-id="44674" fill="#515151"></path></svg>