<?xml version="1.0" standalone="no"?><!DOCTYPE svg PUBLIC "-//W3C//DTD SVG 1.1//EN" "http://www.w3.org/Graphics/SVG/1.1/DTD/svg11.dtd"><svg t="1500652595311" class="icon" style="" viewBox="0 0 1024 1024" version="1.1" xmlns="http://www.w3.org/2000/svg" p-id="1919" xmlns:xlink="http://www.w3.org/1999/xlink" width="200" height="200"><defs><style type="text/css"></style></defs><path d="M894.652632 959.326316c37.726316 0 64.673684-26.947368 64.673684-64.673684v-220.968421c0-16.168421 16.168421-32.336842 32.336842-32.336843s32.336842 16.168421 32.336842 32.336843v220.968421c0 70.063158-59.284211 129.347368-129.347368 129.347368H129.347368C59.284211 1024 0 964.715789 0 894.652632v-220.968421c0-16.168421 16.168421-32.336842 32.336842-32.336843s32.336842 16.168421 32.336842 32.336843v220.968421c0 37.726316 26.947368 64.673684 64.673684 64.673684h765.305264z m-317.978948-522.778948c-458.105263 10.778947-512 161.684211-512 161.684211 0-231.747368 188.631579-458.105263 576.673684-452.71579V70.063158c0-70.063158 43.115789-91.621053 97.010527-43.11579l264.08421 226.357895c26.947368 21.557895 26.947368 59.284211 0 80.842105l-264.08421 226.357895c-53.894737 43.115789-97.010526 26.947368-97.010527-43.115789V436.547368h-64.673684z m64.673684-64.673684c37.726316 0 64.673684 26.947368 64.673685 64.673684v64.673685l247.915789-210.189474-247.915789-210.189474v70.063158c0 37.726316-26.947368 64.673684-64.673685 64.673684C398.821053 204.8 231.747368 301.810526 161.684211 447.326316c91.621053-43.115789 242.526316-75.452632 479.663157-75.452632z" fill="#515151" p-id="1920"></path></svg>