<?xml version="1.0" standalone="no"?><!DOCTYPE svg PUBLIC "-//W3C//DTD SVG 1.1//EN" "http://www.w3.org/Graphics/SVG/1.1/DTD/svg11.dtd"><svg class="icon" width="200px" height="187.37px" viewBox="0 0 1093 1024" version="1.1" xmlns="http://www.w3.org/2000/svg"><path d="M924 296.001h-169.392l-189.968-213.296c-5.11-5.663-12.206-9.447-20.182-10.251 1.83 0.202 1.126 0.139 0.406 0.026-0.944-0.112-1.872-0.256-2.832-0.288-0.672-0.032-1.328-0.192-2.032-0.192h-387.648c-50.981 0.073-92.288 41.386-92.352 92.362v679.27c0.064 50.982 41.371 92.295 92.345 92.368h547.655c17.673 0 32-14.327 32-32s-14.327-32-32-32h-547.648c-15.656-0.018-28.342-12.71-28.352-28.367v-679.265c0-15.648 12.72-28.368 28.352-28.368h375.056l189.68 212.992c6.576 7.36 15.792 10.784 24.928 10.416 1.952 0.352 3.936 0.592 5.984 0.592h176c17.648 0 32 14.352 32 32v240c0 17.673 14.327 32 32 32s32-14.327 32-32v-240c0-52.944-43.056-96-96-96z" fill="#d8d8d8" /><path d="M990 744h-114v-114c0-16.56-13.44-30-30-30h-4c-16.56 0-30 13.44-30 30v114h-114c-16.56 0-30 13.44-30 30v4c0 16.56 13.44 30 30 30h114v114c0 16.56 13.44 30 30 30h4c16.56 0 30-13.44 30-30v-114h114c16.56 0 30-13.44 30-30v-4c0-16.56-13.44-30-30-30z" fill="#d8d8d8" /></svg>