<?xml version="1.0" standalone="no"?><!DOCTYPE svg PUBLIC "-//W3C//DTD SVG 1.1//EN" "http://www.w3.org/Graphics/SVG/1.1/DTD/svg11.dtd"><svg t="1502596351259" class="icon" style="" viewBox="0 0 1024 1024" version="1.1" xmlns="http://www.w3.org/2000/svg" p-id="2375" xmlns:xlink="http://www.w3.org/1999/xlink" width="30" height="30"><defs><style type="text/css"></style></defs><path d="M509.958932 4.591575c-261.546291 0-473.540019 212.014718-473.540019 473.506291l0 266.348184c0 65.37494 52.977709 118.378108 118.381935 118.378108 65.374548 0 118.381935-53.003168 118.381935-118.378108l0-177.564092c0-65.373916-53.006363-118.378108-118.381935-118.378108-21.41663 0-41.214322 6.127558-58.526303 16.040325 7.225861-222.477001 189.393085-400.76457 413.684387-400.76457 224.219668 0 406.416569 178.287569 413.64243 400.76457-17.341657-9.912767-37.109673-16.040325-58.497649-16.040325-65.432879 0-118.381935 53.003168-118.381935 118.378108l0 177.564092c0 65.37494 52.948032 118.378108 118.381935 118.378108 65.375572 0 118.382958-53.003168 118.382958-118.378108L983.486671 478.097866C983.485648 216.606293 771.462243 4.591575 509.958932 4.591575zM154.800848 507.690858c32.687786 0 59.190456 26.502607 59.190456 59.1911l0 177.564092c0 32.68747-26.50267 59.188031-59.190456 59.188031-32.717463 0-59.190456-26.499537-59.190456-59.188031l0-177.564092C95.609369 534.194488 122.083385 507.690858 154.800848 507.690858zM924.294169 744.445026c0 32.68747-26.531324 59.188031-59.190456 59.188031-32.717463 0-59.190456-26.499537-59.190456-59.188031l0-177.564092c0-32.68747 26.472993-59.1911 59.190456-59.1911 32.659132 0 59.190456 26.502607 59.190456 59.1911L924.294169 744.445026z" p-id="2376" fill="#D8D8D8"></path></svg>