<?xml version="1.0" standalone="no"?><!DOCTYPE svg PUBLIC "-//W3C//DTD SVG 1.1//EN" "http://www.w3.org/Graphics/SVG/1.1/DTD/svg11.dtd"><svg t="1502597240525" class="icon" style="" viewBox="0 0 1024 1024" version="1.1" xmlns="http://www.w3.org/2000/svg" p-id="4807" xmlns:xlink="http://www.w3.org/1999/xlink" width="128" height="128"><defs><style type="text/css"></style></defs><path d="M896 896 725.333333 896C701.76 896 682.666667 876.906667 682.666667 853.333333L682.666667 576C682.666667 552.426667 701.76 533.333333 725.333333 533.333333L853.333333 533.333333 853.333333 512C853.333333 323.477333 700.522667 170.666667 512 170.666667 323.477333 170.666667 170.666667 323.477333 170.666667 512L170.666667 533.333333 298.666667 533.333333C322.24 533.333333 341.333333 552.426667 341.333333 576L341.333333 853.333333C341.333333 876.906667 322.24 896 298.666667 896L128 896C104.426667 896 85.333333 876.906667 85.333333 853.333333L85.333333 512C85.333333 276.352 276.352 85.333333 512 85.333333 747.648 85.333333 938.666667 276.352 938.666667 512L938.666667 853.333333C938.666667 876.906667 919.573333 896 896 896ZM170.666667 810.666667 256 810.666667 256 618.666667 170.666667 618.666667 170.666667 810.666667ZM853.333333 618.666667 768 618.666667 768 810.666667 853.333333 810.666667 853.333333 618.666667Z" p-id="4808" fill="#D8D8D8"></path></svg>