<?xml version="1.0" standalone="no"?><!DOCTYPE svg PUBLIC "-//W3C//DTD SVG 1.1//EN" "http://www.w3.org/Graphics/SVG/1.1/DTD/svg11.dtd"><svg t="1502597302776" class="icon" style="" viewBox="0 0 1024 1024" version="1.1" xmlns="http://www.w3.org/2000/svg" p-id="5027" xmlns:xlink="http://www.w3.org/1999/xlink" width="128" height="128"><defs><style type="text/css"></style></defs><path d="M359.45088 872.61952 359.45088 152.68224c0-28.10624 22.78784-50.89408 50.89408-50.89408l407.15392-50.89408c28.10624 0 50.89408 22.78784 50.89408 50.89408l0 620.93312 50.89408 62.42432L919.28704 101.78816C919.28832 45.57568 873.71264 0 817.50016 0L410.34624 50.89408c-56.21248 0-101.78816 45.57568-101.78816 101.78816l0 634.05312L359.45088 872.61952z" p-id="5028" fill="#D8D8D8"></path><path d="M207.04384 709.46304c-84.34432 0-152.68224 68.35072-152.68224 152.68224s68.33792 152.68224 152.68224 152.68224c84.31616 0 152.65792-68.35072 152.65792-152.68224S291.36 709.46304 207.04384 709.46304zM207.04384 963.93472c-56.21248 0-101.78816-45.56288-101.78816-101.78816s45.57568-101.78816 101.78816-101.78816c56.20992 0 101.76256 45.56288 101.76256 101.78816S263.25376 963.93472 207.04384 963.93472z" p-id="5029" fill="#D8D8D8"></path><path d="M766.58048 624.37376c-84.31616 0-152.68224 68.35328-152.68224 152.68224 0 84.33152 68.36608 152.68224 152.68224 152.68224 84.34432 0 152.68224-68.35072 152.68224-152.68224C919.26272 692.72704 850.9248 624.37376 766.58048 624.37376zM766.58048 878.84416c-56.20992 0-101.78816-45.56288-101.78816-101.78816 0-56.22272 45.57824-101.78816 101.78816-101.78816 56.23808 0 101.78816 45.56544 101.78816 101.78816C868.36864 833.28128 822.81856 878.84416 766.58048 878.84416z" p-id="5030" fill="#D8D8D8"></path></svg>