<?xml version="1.0" standalone="no"?><!DOCTYPE svg PUBLIC "-//W3C//DTD SVG 1.1//EN" "http://www.w3.org/Graphics/SVG/1.1/DTD/svg11.dtd"><svg t="1502281567708" class="icon" style="" viewBox="0 0 1024 1024" version="1.1" xmlns="http://www.w3.org/2000/svg" p-id="2930" xmlns:xlink="http://www.w3.org/1999/xlink" width="30" height="30"><defs><style type="text/css"></style></defs><path d="M618.253 405.865c-45.782-45.782-99.179-81.235-158.704-105.374-57.481-23.309-118.208-35.128-180.497-35.128-0.406 0-0.811 0.005-1.216 0.006-0.023 20.901-0.045 42.394-0.064 64.156 106.889-0.327 213.881 40.192 295.255 121.566 81.049 81.049 121.574 187.513 121.574 293.976h64.156c0-62.289-11.818-123.017-35.128-180.497-24.141-59.526-59.592-112.922-105.375-158.705zM270.033 453.524c-0.445 0-0.89 0.015-1.336 0.016-0.001 21.77 0.001 43.235 0.011 64.072 61.044-0.339 122.194 22.715 168.665 69.187 46.136 46.136 69.205 106.738 69.203 167.34h64.071c0-80.296-31.27-155.788-88.049-212.566-56.778-56.778-132.269-88.048-212.565-88.048zM277.867 623.6c15.013 5124.589 1010.006 10249.547 2984.971 15067.115l-2983.801-14945.661 121.469 0.001c-0.001-31.12-11.845-62.24-35.537-85.933-23.988-23.988-55.592-35.823-87.101-35.522zM937.722 744.586c0.001-85.549-16.23-168.951-48.241-247.89-33.148-81.742-81.838-155.071-144.716-217.949s-136.206-111.567-217.949-144.715c-78.905-31.997-162.269-48.227-247.781-48.241l0.001 64.24c152.287 0.028 304.566 58.009 420.501 173.944 116.062 116.062 174.042 268.548 173.941 421.001l64.239-0.008c0.001-0.129 0.004-0.255 0.004-0.382z" fill="#D8D8D8" p-id="2931"></path></svg>