<?xml version="1.0" standalone="no"?><!DOCTYPE svg PUBLIC "-//W3C//DTD SVG 1.1//EN" "http://www.w3.org/Graphics/SVG/1.1/DTD/svg11.dtd"><svg t="1502104495730" class="icon" style="" viewBox="0 0 1024 1024" version="1.1" xmlns="http://www.w3.org/2000/svg" p-id="3498" xmlns:xlink="http://www.w3.org/1999/xlink" width="200" height="200"><defs><style type="text/css"></style></defs><path d="M956.612 321.17h-85.196v85.206a28.375 28.375 0 0 1-28.41 28.393 28.375 28.375 0 0 1-28.403-28.393v-85.205h-85.187a28.41 28.41 0 1 1 0-56.813h85.196v-85.205a28.366 28.366 0 0 1 28.402-28.411 28.375 28.375 0 0 1 28.411 28.41v85.206h85.196a28.375 28.375 0 0 1 28.411 28.393 28.429 28.429 0 0 1-28.42 28.42zM191.443 434.797a25.06 25.06 0 0 1-25.06-25.088 25.033 25.033 0 0 1 25.06-25.06h100.242a25.024 25.024 0 0 1 25.052 25.06 25.051 25.051 0 0 1-25.052 25.088H191.443z m125.294 133.61c0-92.15 74.946-167.07 167.069-167.07 92.132 0 167.078 74.92 167.078 167.07s-74.946 167.07-167.078 167.07c-92.123 0-167.07-74.91-167.07-167.07z m278.464 0c0-61.4-49.959-111.367-111.395-111.367-61.418 0-111.377 49.958-111.377 111.367 0 61.455 49.959 111.377 111.377 111.377 61.436 0 111.395-49.922 111.395-111.377z m24.888-250.595a49.76 49.76 0 0 0 3.07-16.707 50.12 50.12 0 0 0-50.12-50.12H383.32a50.139 50.139 0 0 0-50.12 50.12c0 5.897 1.21 11.451 3.07 16.707h-203.3a33.441 33.441 0 0 0-33.424 33.414v434.38a33.414 33.414 0 0 0 33.423 33.405h668.278a33.396 33.396 0 0 0 33.405-33.404V468.174h50.13v317.432c0 46.138-37.415 83.525-83.535 83.525H132.969c-46.147 0-83.535-37.387-83.535-83.525V351.225c0-46.138 37.388-83.535 83.535-83.535h166.04c7.73-38.11 41.415-66.827 81.837-66.827h194.676c40.404 0 74.107 28.717 81.846 66.827H667.6v50.121h-47.51z" p-id="3499" fill="#d8d8d8"></path></svg>