<?xml version="1.0" standalone="no"?><!DOCTYPE svg PUBLIC "-//W3C//DTD SVG 1.1//EN" "http://www.w3.org/Graphics/SVG/1.1/DTD/svg11.dtd"><svg t="1503159383564" class="icon" style="" viewBox="0 0 1024 1024" version="1.1" xmlns="http://www.w3.org/2000/svg" p-id="2397" xmlns:xlink="http://www.w3.org/1999/xlink" width="28" height="28"><defs><style type="text/css"></style></defs><path d="M511.724 64.005c-246.265 0-447.753 201.488-447.753 447.753 0 246.26 201.488 447.75 447.753 447.75 246.26 0 447.749-201.489 447.749-447.75 0-246.264-201.488-447.753-447.749-447.753z m40.297 718.64h-96.27v-89.548h96.27v89.548z m40.297-237.308c-31.342 20.15-47.013 42.534-44.776 69.403v24.624h-87.31v-26.862c-2.239-51.494 22.387-96.27 71.638-132.087 44.777-29.105 64.927-62.686 60.447-94.033-4.48-35.817-26.863-55.968-69.4-60.443h-4.48c-53.727 0-85.07 26.863-94.027 85.074v6.716l-91.786-26.867 2.238-6.717c22.388-100.743 89.549-149.995 199.246-145.52 96.269 4.48 150 53.732 158.954 145.52-2.237 60.449-33.58 114.179-100.744 161.192z m0 0" fill="#436FA6" p-id="2398"></path></svg>