<?xml version="1.0" standalone="no"?><!DOCTYPE svg PUBLIC "-//W3C//DTD SVG 1.1//EN" "http://www.w3.org/Graphics/SVG/1.1/DTD/svg11.dtd"><svg t="1500264840866" class="icon" style="" viewBox="0 0 1024 1024" version="1.1" xmlns="http://www.w3.org/2000/svg" p-id="1173" xmlns:xlink="http://www.w3.org/1999/xlink" width="32" height="32"><defs><style type="text/css"></style></defs><path d="M469.376 128.448a341.76 341.76 0 0 1 341.312 341.312c0 78.144-25.792 151.68-74.816 212.8l-23.808 29.76-29.12 23.424a337.28 337.28 0 0 1-213.568 75.328A341.76 341.76 0 0 1 128.064 469.76a341.76 341.76 0 0 1 341.312-341.312m0-96a437.312 437.312 0 0 0 0 874.624 434.432 434.432 0 0 0 273.6-96.512l166.4 166.336a50.048 50.048 0 0 0 35.2 14.656 47.232 47.232 0 0 0 33.6-13.824 48.512 48.512 0 0 0-1.088-68.736l-166.4-166.528a434.56 434.56 0 0 0 95.872-272.832 437.12 437.12 0 0 0-437.184-437.184z" p-id="1174" fill="#bfbfbf"></path></svg>