<?xml version="1.0" standalone="no"?><!DOCTYPE svg PUBLIC "-//W3C//DTD SVG 1.1//EN" "http://www.w3.org/Graphics/SVG/1.1/DTD/svg11.dtd"><svg t="1500223291053" class="icon" style="" viewBox="0 0 1024 1024" version="1.1" xmlns="http://www.w3.org/2000/svg" p-id="2711" xmlns:xlink="http://www.w3.org/1999/xlink" width="200" height="200"><defs><style type="text/css"></style></defs><path d="M513.4 511.882m-446.987 0a446.987 446.987 0 1 0 893.974 0 446.987 446.987 0 1 0-893.974 0Z" fill="#E0E0D1" p-id="2712"></path><path d="M792.767 679.503c0 30.858-25.015 55.873-55.873 55.873H289.906c-30.858 0-55.873-25.015-55.873-55.873v-251.43c0-30.858 25.015-55.873 55.873-55.873h446.987c30.858 0 55.873 25.015 55.873 55.873v251.43z" fill="#231F20" p-id="2713"></path><path d="M597.21 302.357v279.367H429.59V302.357h167.62m0-55.873H429.59c-30.858 0-55.873 25.015-55.873 55.873v279.367c0 30.858 25.015 55.873 55.873 55.873h167.62c30.858 0 55.873-25.015 55.873-55.873V302.357c0-30.858-25.015-55.873-55.873-55.873z" fill="#4F5D73" p-id="2714"></path><path d="M234.033 469.977v181.589c0 30.858 25.015 55.873 55.873 55.873h446.987c30.858 0 55.873-25.016 55.873-55.873V469.977H234.033z" fill="#C75C5C" p-id="2715"></path><path d="M569.273 456.009v41.905H457.526v-41.905h111.747m0-55.874H457.526c-30.858 0-55.873 25.015-55.873 55.873v41.905c0 30.858 25.015 55.873 55.873 55.873h111.747c30.858 0 55.873-25.015 55.873-55.873v-41.905c0-30.858-25.015-55.873-55.873-55.873z" fill="#F5CF87" p-id="2716"></path><path d="M792.767 428.072c0-30.858-25.015-55.873-55.873-55.873H289.906c-30.858 0-55.873 25.015-55.873 55.873v69.842h558.734v-69.842z" fill="#231F20" p-id="2717"></path><path d="M792.767 400.135c0-30.858-25.015-55.873-55.873-55.873H289.906c-30.858 0-55.873 25.015-55.873 55.873v69.842h558.734v-69.842z" fill="#C75C5C" p-id="2718"></path></svg>