<?xml version="1.0" standalone="no"?><!DOCTYPE svg PUBLIC "-//W3C//DTD SVG 1.1//EN" "http://www.w3.org/Graphics/SVG/1.1/DTD/svg11.dtd"><svg t="1500223270011" class="icon" style="" viewBox="0 0 1024 1024" version="1.1" xmlns="http://www.w3.org/2000/svg" p-id="2292" xmlns:xlink="http://www.w3.org/1999/xlink" width="200" height="200"><defs><style type="text/css"></style></defs><path d="M510.875 511.057m-445.662 0a445.662 445.662 0 1 0 891.324 0 445.662 445.662 0 1 0-891.324 0Z" fill="#E0995E" p-id="2293"></path><path d="M510.875 384.643H267.153c-19.219 0-34.817 14.81-34.817 33.734V727.46c0 18.923 15.598 34.282 34.817 34.282h487.443c19.219 0 34.817-15.358 34.817-34.282V384.642H510.875z" fill="#231F20" p-id="2294"></path><path d="M510.875 356.789H267.153c-19.219 0-34.817 14.81-34.817 33.734v309.084c0 18.923 15.598 34.282 34.817 34.282h487.443c19.219 0 34.817-15.358 34.817-34.282V356.788H510.875z" fill="#FFFFFF" p-id="2295"></path><path d="M789.413 322.508c0-18.923-15.598-34.282-34.817-34.282H580.509c-19.219 0-34.817 15.358-34.817 34.282 0 0-4.526 31.436-34.817 34.281h278.539v-34.281z" fill="#E0E0D1" p-id="2296"></path></svg>