<?xml version="1.0" standalone="no"?><!DOCTYPE svg PUBLIC "-//W3C//DTD SVG 1.1//EN" "http://www.w3.org/Graphics/SVG/1.1/DTD/svg11.dtd"><svg t="1500223259510" class="icon" style="" viewBox="0 0 1024 1024" version="1.1" xmlns="http://www.w3.org/2000/svg" p-id="2150" xmlns:xlink="http://www.w3.org/1999/xlink" width="200" height="200"><defs><style type="text/css"></style></defs><path d="M512.184 512.246m-448.112 0a448.112 448.112 0 1 0 896.224 0 448.112 448.112 0 1 0-896.224 0Z" fill="#E0995E" p-id="2151"></path><path d="M757.246 376.878h-70.018s-20.235 0-35.009-37.343c-7.526-19.007-15.684-37.342-35.009-37.342H477.176c-19.325 0-27.727 18.223-35.009 37.342-14.214 37.343-35.009 37.343-35.009 37.343h-35.009c0-20.613-15.684-37.343-35.009-37.343h-35.009c-19.325 0-35.009 16.73-35.009 37.343-19.325 0-35.009 16.73-35.009 37.343v298.741c0 20.613 15.684 37.343 35.009 37.343h490.123c19.325 0 35.009-16.73 35.009-37.343V414.221c0.001-20.613-15.683-37.343-35.008-37.343z" fill="#231F20" p-id="2152"></path><path d="M757.246 344.204h-70.018s-20.235 4.668-35.009-32.675c-7.526-19.007-15.684-37.342-35.009-37.342H477.176c-19.325 0-27.727 18.223-35.009 37.342-14.214 37.343-35.009 32.675-35.009 32.675h-35.009c0-20.613-15.684-28.007-35.009-28.007h-35.009c-19.325 0-35.009 7.394-35.009 28.007-19.325 0-35.009 21.398-35.009 42.011v298.741c0 20.613 15.684 37.343 35.009 37.343h490.123c19.325 0 35.009-16.73 35.009-37.343V386.214c0.001-20.613-15.683-42.01-35.008-42.01z" fill="#4F5D73" p-id="2153"></path><path d="M540.191 526.249m-126.032 0a126.032 126.032 0 1 0 252.064 0 126.032 126.032 0 1 0-252.064 0Z" fill="#77B3D4" p-id="2154"></path><path d="M540.191 708.295c-84.937 0-154.039-69.101-154.039-154.039s69.101-154.039 154.039-154.039S694.23 469.319 694.23 554.256s-69.101 154.039-154.039 154.039z m0-252.063c-54.045 0-98.025 43.98-98.025 98.025s43.98 98.025 98.025 98.025 98.025-43.98 98.025-98.025-43.98-98.025-98.025-98.025z" fill="#231F20" p-id="2155"></path><path d="M540.191 673.286c-81.081 0-147.037-65.956-147.037-147.037s65.956-147.037 147.037-147.037 147.037 65.956 147.037 147.037-65.956 147.037-147.037 147.037z m0-252.063c-57.915 0-105.026 47.111-105.026 105.026s47.111 105.026 105.026 105.026 105.026-47.111 105.026-105.026-47.111-105.026-105.026-105.026z" fill="#FFFFFF" p-id="2156"></path></svg>